<svg width="9" height="15" viewBox="0 0 9 15" fill="none" xmlns="http://www.w3.org/2000/svg">
<path d="M7.8043 0.00312097L5.85915 0C3.67385 0 2.26161 1.44891 2.26161 3.69148V5.3935H0.305855C0.136855 5.3935 0 5.53051 0 5.69951V8.16555C0 8.33455 0.137011 8.4714 0.305855 8.4714H2.26161V14.694C2.26161 14.863 2.39847 14.9998 2.56747 14.9998H5.11917C5.28817 14.9998 5.42503 14.8628 5.42503 14.694V8.4714H7.71176C7.88076 8.4714 8.01762 8.33455 8.01762 8.16555L8.01855 5.69951C8.01855 5.61837 7.98625 5.54066 7.92898 5.48323C7.87171 5.4258 7.79369 5.3935 7.71254 5.3935H5.42503V3.95068C5.42503 3.2572 5.59028 2.90515 6.49365 2.90515L7.80399 2.90469C7.97283 2.90469 8.10968 2.76767 8.10968 2.59883V0.308976C8.10968 0.140288 7.97299 0.00343307 7.8043 0.00312097Z" fill="white"/>
</svg>
