<svg width="15" height="15" viewBox="0 0 15 15" fill="none" xmlns="http://www.w3.org/2000/svg">
<path d="M10.7143 2.67859H1.60714C0.719541 2.67859 0 3.39813 0 4.28573V13.3929C0 14.2805 0.719541 15 1.60714 15H10.7143C11.6019 15 12.3214 14.2805 12.3214 13.3929V4.28573C12.3214 3.39813 11.6019 2.67859 10.7143 2.67859Z" fill="#4F4F4F"/>
<path d="M13.3929 1.03774e-09H3.75003C2.86723 -3.13884e-05 2.14966 0.712039 2.14288 1.59481C2.14288 1.59911 2.14288 1.60284 2.14288 1.60714H10.7143C12.1929 1.6089 13.3911 2.8071 13.3929 4.2857V12.8571C13.3972 12.8571 13.4009 12.8571 13.4052 12.8571C14.288 12.8504 15 12.1328 15 11.25V1.60714C15 0.719541 14.2805 1.03774e-09 13.3929 1.03774e-09Z" fill="#4F4F4F"/>
</svg>
