<svg width="18" height="18" viewBox="0 0 18 18" fill="none" xmlns="http://www.w3.org/2000/svg">
<rect width="18" height="18" fill="#F2C94C"/>
<path d="M7.376 14.126C8.024 14.126 8.555 13.946 8.969 13.577C9.383 13.208 9.59 12.695 9.59 12.038V7.7H8.357V12.038C8.357 12.578 8.033 12.911 7.376 12.911C6.899 12.911 6.566 12.713 6.368 12.317L5.297 12.929C5.693 13.73 6.386 14.126 7.376 14.126ZM12.86 14.126C13.535 14.126 14.084 13.955 14.507 13.613C14.93 13.271 15.146 12.812 15.146 12.227C15.146 11.867 15.047 11.552 14.912 11.336C14.795 11.12 14.507 10.895 14.318 10.778C14.228 10.715 14.093 10.652 13.922 10.589C13.751 10.517 13.616 10.463 13.517 10.436L13.085 10.292C12.617 10.148 12.302 10.013 12.131 9.896C11.969 9.77 11.888 9.608 11.888 9.41C11.888 9.041 12.203 8.78 12.716 8.78C13.265 8.78 13.67 9.05 13.922 9.59L14.966 8.987C14.534 8.096 13.733 7.574 12.716 7.574C12.149 7.574 11.654 7.745 11.249 8.087C10.844 8.42 10.646 8.879 10.646 9.446C10.646 10.022 10.853 10.454 11.24 10.742C11.636 11.021 11.978 11.156 12.545 11.327C13.058 11.471 13.409 11.606 13.607 11.732C13.805 11.849 13.904 12.02 13.904 12.245C13.904 12.632 13.589 12.911 12.896 12.911C12.176 12.911 11.69 12.587 11.447 11.948L10.385 12.569C10.736 13.532 11.609 14.126 12.86 14.126Z" fill="black"/>
</svg>
