<svg width="15" height="16" viewBox="0 0 15 16" fill="none" xmlns="http://www.w3.org/2000/svg">
<path d="M14.9963 15.2663V15.2656H15.0001V9.76438C15.0001 7.07313 14.4207 5 11.2744 5C9.76193 5 8.74692 5.83 8.33255 6.61688H8.2888V5.25125H5.30566V15.2656H8.41192V10.3069C8.41192 9.00126 8.65942 7.73875 10.2763 7.73875C11.8694 7.73875 11.8932 9.22876 11.8932 10.3906V15.2663H14.9963Z" fill="white"/>
<path d="M0.247559 5H3.35756V15.0144H0.247559V5Z" fill="white"/>
<path d="M1.80125 0C0.806875 0 0 0.806875 0 1.80125C0 2.79562 0.806875 3.61937 1.80125 3.61937C2.79562 3.61937 3.6025 2.79562 3.6025 1.80125C3.60188 0.806875 2.795 0 1.80125 0V0Z" fill="white"/>
</svg>
